<?xml version="1.0" encoding="utf-8"?>
<!-- Generator: Adobe Illustrator 19.0.0, SVG Export Plug-In . SVG Version: 6.00 Build 0)  -->
<svg version="1.1" id="layer" xmlns="http://www.w3.org/2000/svg" xmlns:xlink="http://www.w3.org/1999/xlink" x="0px" y="0px"
	 viewBox="-153 -46 652 652" style="enable-background:new -153 -46 652 652;" xml:space="preserve">
<style type="text/css">
	.st0{fill:#FFF5DB;}
	.st1{fill:#603812;}
</style>
<path id="XMLID_1_" class="st0" d="M573.6,186.9h-1.3V92.4c0-1.9-0.9-3.7-2.5-4.8c-1.5-1.1-3.6-1.5-5.4-0.9
	c-27.5,8.5-62.5,12.8-104,12.8c-54,0-116.5-7.7-171.6-21.1c-54.1-13.2-94.7-30.2-111.4-46.8c-2.4-2.3-6.2-2.3-8.6,0
	c-16.7,16.6-57.3,33.6-111.4,46.8C2.3,91.8-60.2,99.5-114.2,99.5c-41.5,0-76.5-4.3-104-12.8c-1.8-0.6-3.8-0.2-5.4,0.9
	c-1.6,1.1-2.5,2.9-2.5,4.8v94.4h-1.3c-8.9,0-16,7.1-16,15.9V311c0,8.8,7.2,15.9,16,15.9h1.3v17.4c0,44.7,20.8,75.6,63.7,94.5
	c37.2,16.4,85.8,22.1,137.3,28.2c74.6,8.8,151.7,17.9,193.8,61.1c1.1,1.2,2.7,1.8,4.4,1.8c1.6,0,3.2-0.7,4.4-1.8
	c42.1-43.1,119.2-52.2,193.8-61.1c51.5-6.1,100.1-11.8,137.3-28.2c42.9-18.9,63.7-49.8,63.7-94.5v-17.4h1.3c8.8,0,16-7.1,16-15.9
	V202.8C589.6,194,582.4,186.9,573.6,186.9"/>
<path id="XMLID_4_" class="st1" d="M558.6,212.4h-12.1v-65.1c0-2.9-2.4-5.2-5.3-5.2c-2.9,0-5.3,2.3-5.3,5.2v70.3
	c0,2.9,2.3,5.2,5.3,5.2h12.1V291h-12.1c-2.9,0-5.3,2.3-5.3,5.2v48.1c0,30.6-12.2,48.5-42.2,61.7c-32.2,14.2-78.1,19.6-126.8,25.3
	c-70.1,8.3-142.5,16.8-193.9,53.3c-51.3-36.4-123.8-45-193.9-53.3c-48.7-5.7-94.6-11.2-126.8-25.3c-30-13.2-42.2-31.1-42.2-61.7
	v-48.1c0-2.9-2.4-5.2-5.3-5.2h-12.1v-68.2h12.1c2.9,0,5.3-2.3,5.3-5.2v-70.3c0-2.9-2.4-5.2-5.3-5.2c-2.9,0-5.3,2.3-5.3,5.2v65.1
	h-12.1c-2.9,0-5.3,2.3-5.3,5.2v78.6c0,2.9,2.4,5.2,5.3,5.2h12.1v42.9c0,34.5,14.9,56.5,48.4,71.2c33.6,14.8,80.4,20.3,129.9,26.2
	c70.2,8.3,142.7,16.9,191.9,53.5c0.9,0.7,2,1,3.2,1c1.1,0,2.2-0.3,3.2-1c49.2-36.7,121.8-45.2,192-53.5
	c49.5-5.8,96.2-11.4,129.9-26.2c33.5-14.7,48.4-36.7,48.4-71.2v-42.9h12.1c2.9,0,5.3-2.3,5.3-5.2v-78.6
	C563.9,214.7,561.5,212.4,558.6,212.4 M-200.2,122.9c0.5-2.8,3.3-4.7,6.1-4.2c23.4,4.2,50.3,6.4,79.9,6.4h0c56,0,120.8-8,177.7-21.9
	c32.4-7.9,77.1-21.3,106.7-40.4c1.7-1.1,4-1.1,5.8,0c29.6,19.1,74.3,32.5,106.7,40.4c57,13.9,121.7,21.9,177.7,21.8
	c29.6,0,56.5-2.1,79.9-6.4c2.9-0.5,5.6,1.4,6.1,4.2c0.5,2.8-1.4,5.5-4.2,6.1c-24,4.3-51.6,6.5-81.8,6.5
	c-56.8,0-122.5-8.1-180.3-22.2c-32.1-7.8-76.3-21-107.1-39.9c-30.7,18.9-74.9,32.1-107,39.9c-57.7,14.1-123.4,22.1-180.3,22.2h0
	c-30.2,0-57.7-2.2-81.8-6.5C-198.9,128.4-200.8,125.7-200.2,122.9z M352.3,281c0-9.9-7.2-14.7-18-14.7c-15.2,0-23.4,15.1-26.5,21.1
	L292.5,318c-1.4,2.9-2.9,7.9-2.9,10.8c0,9.9,7.2,14.7,18,14.7c15.2,0,23.4-15.1,26.5-21.1l15.2-30.3
	C350.9,289,352.3,283.5,352.3,281 M339.4,287.4l-14.8,30.1c-2.2,4.4-7.8,15.8-17,15.8c-4.1,0-7-1.5-7-4.6c0-1.5,0.6-4.1,1.8-6.4
	l14.8-29.8c2.2-4.4,7.6-16.2,17-16.2C342.3,276.4,341.9,282.2,339.4,287.4 M389,257.8c-6.8,13.2,14.8,4.4,14.8,21.1
	c0,2.9-2.1,8.5-3.1,11.2L384.9,322c-2.3,4.4-3.9,11.4,3.9,11.4c9.2,0,14.8-11.4,16.8-15.3c3.3-5.6,12.3-2.7,9.8,3.7
	c-3.5,7.7-13.5,21.6-26.6,21.6c-10.7,0-17-4.6-17-14.5c0-3.1,1-7.3,3.1-11.2l15.4-31.1c1-2.3,1.8-4.8,1.8-6.4c0-5.8-9-2.5-9.8-8.7
	l-25,50.6c-3.1,6.4-4.9,11.6-4.9,19.1c0,6,2.3,11.8,5.9,11.8c7.8,0,8.2,10.4,0,10.4c-11.5,0-17-10.8-17-22.2
	c0-9.3,4.5-19.3,6.3-23.4l31.2-64.4C382.5,245.9,392.9,250.1,389,257.8 M-68.1,281.6c-1.4,5.6-2.3,11.2-2.3,17.4
	c0,32.5,23.2,56.8,58,56.8c38.4,0,77.2-30.4,88.6-68.9v0l0.1-0.2c0.4-1.5,0.9-3,1.2-4.6l0.1-0.4c4-0.3,7.9-0.7,11.8-1.2
	c2.9-0.4,5.8-0.9,8.6-1.4l-18.9,39.1c-1.8,4.1-3.1,7.3-3.1,10.6c0,9.9,7.2,14.7,18,14.7c6.3,0,11.7-2.7,15.8-6.8
	c2.7,4.6,8,6.8,15.2,6.8c6,0,11.4-2.9,15.8-6.9c2.8,5,8.8,7.5,16.8,6.9c6-0.5,11.4-3.5,15.7-7.3c2.8,4.9,8.6,7.3,16.2,7.3
	c6.3,0,11.7-2.7,15.8-6.8c3.3,5.2,9.2,6.8,15.2,6.8c6.1,0,11.5-3,15.9-7c2.8,4.7,8.6,7,16.1,7c15.2,0,23.4-15.1,26.5-21.1l15.2-30.3
	c1.6-3.1,3.1-8.5,3.1-11c0-9.9-7.2-14.7-18-14.7c-15.2,0-23.4,15.1-26.4,21.1L237.3,318c-0.2,0.4-0.4,0.9-0.6,1.3
	c-2.4,4.6-7.8,14.1-16.2,14.1c-7.8,0-6.1-7-3.9-11.4l11.9-24.5h0.2l0.8-1.9l13.9-28.4c1.2-2.5,2.5-4.9,3.7-7.3l0.3-0.5
	c4.8-8.9,10.1-17.6,16.1-25.8c1.4-2,2.9-3.9,4.4-5.8c3.8,1.3,7.6,2.7,11.4,3.9c10.4,3.4,21.3,6.2,32.3,7.8
	c11.1,1.6,22.2,2.2,33.3,1.9c5.7-0.1,11.5-0.7,17.2-2c5.7-1.3,11.4-3.4,16.6-6.5c5.2-3.1,9.9-7.3,13.1-12.7c1.6-2.7,2.7-5.6,3.3-8.7
	c0.6-3.1,0.6-6.3,0.1-9.4c-0.6-3.1-1.7-6.1-3.3-8.8c-1.6-2.7-3.6-5.2-5.9-7.2c-4.6-4.2-10.2-7-15.8-8.9c-5.7-1.9-11.5-2.8-17.3-3.1
	c-5.8-0.3-11.5-0.1-17.2,0.6c-11.4,1.4-22.5,4.8-32.6,10c-10.1,5.1-19.1,11.8-27,19.2c-4,3.7-7.7,7.6-11.2,11.7
	c-4-1.4-8-2.9-12.1-4.3c-10.3-3.5-20.8-6.7-31.5-9.2c-10.6-2.6-21.5-4.6-32.6-5.7c-11.1-1.1-22.4-1.5-33.7,0c-5.7,0.8-11.4,2-16.9,4
	c-5.5,2-10.9,4.8-15.6,8.7c-4.7,3.9-8.4,8.9-10.6,14.3c-2.3,5.5-3.1,11.3-3.1,16.8c0,2.7,2.3,4.8,5.2,4.9c2.9,0,5.2-2.2,5.2-4.9
	c0-4.6,0.8-9.1,2.6-13.1c1.7-4,4.5-7.5,7.9-10.4c3.5-2.8,7.7-5,12.3-6.7c4.6-1.6,9.5-2.6,14.5-3.3c10.1-1.3,20.5-1,30.9,0.1
	c10.4,1.1,20.8,3.1,31.1,5.5c10.3,2.4,20.4,5.5,30.4,8.9c2.9,1,5.8,2,8.8,3.1c-1,1.3-1.9,2.6-2.9,3.8c-4.1,5.6-7.8,11.4-11.3,17.3
	c-5.1,8.4-9.9,17.3-14.7,26.7c-2.5-3.7-8-5.6-12.7-5.6c-15.2,0-23.4,15.1-26.5,21.1L174.4,318c-0.2,0.4-0.4,0.8-0.6,1.3
	c-2.4,4.6-7.8,14.1-16.2,14.1c-7.2,0-8-5.4-5.5-11.4l19.7-41.2c1.2-2.5,2.9-3.5,5.7-3.5h5.9c8.2,0,8.6-10.1,1.8-10.1h-2.9
	c-2.9,0-3.5-1-2.5-3.5l5.7-11.4c4.3-8.3-6.6-11-10-4.1l-7.8,15.5c-1,2.5-2.9,3.5-5.7,3.5h-0.8c-7.8,0-9.4,10.1-1.8,10.1
	c1.2,0,1.8,1,0.8,3.5l-17.8,36.4l-0.6,0.9c-2.1,3.9-7.6,15.3-16.8,15.3c-3.7,0-5.9-1.3-5.9-4.4c0-1.6,0.6-4.1,2-7l22.8-47.3
	c3.5-7.3-7-10.8-10-3.9l-23.6,48.9c-2.4,5.2-9,13.7-16.2,13.7c-4.1,0-7-1.5-7-4.6c0-1.5,0.8-4.1,1.8-6.4l23.2-47.3
	c2.1-4.3-0.4-7.3-3.5-7.9c-0.7-0.1-1.4-0.1-2.2,0c-6.2,1.2-12.3,2.4-18.5,3.3c-2.9,0.4-5.8,0.7-8.7,1c0.1-1.3,0.1-2.6,0.1-4
	c-0.1-3.4-0.6-6.9-1.8-10.4c-0.6-1.7-1.4-3.5-2.4-5.1c-0.5-0.8-1.1-1.6-1.7-2.4l-1-1.1l-0.6-0.6l-0.4-0.4l-0.6-0.5l-0.6-0.5l-1.1-1
	c-0.8-0.6-1.6-1.2-2.5-1.7c-1.8-1.1-3.8-1.9-5.9-2.5c-4.2-1.1-8.7-0.9-12.8,0.4c-4,1.3-7.7,3.7-10.3,7c-1.3,1.7-2.4,3.6-3.1,5.6
	c-0.7,2.1-0.9,4.3-0.7,6.4c0.2,2.2,0.9,4.2,1.8,6.1c0.9,1.8,2.1,3.5,3.4,4.9c2.7,2.9,6.1,5.1,9.5,6.6c3.5,1.5,7,2.4,10.5,2.9
	c2.3,0.4,4.6,0.6,6.9,0.7l-0.3,1c-10.4,33.6-44.7,62.6-78.1,62.6c-28.1,0-46.9-19.5-46.9-46.4c0-4.6,0.8-9.9,2.1-15.7
	c8.8-35.2,44.3-64,78.7-64c13.3,0,24.4,4.4,32.5,11.8l0,0c2.5,2,6.2,1.9,8.2-0.3c2-2.2,1.6-5.7-0.9-7.8l-0.1-0.1
	c-9.9-8.9-23.5-14.1-39.7-14.1C-18.1,208.9-58.3,241.4-68.1,281.6 M247.4,322.4l14.8-29.8c2.3-4.4,7.6-16.2,17-16.2
	c8,0,7.6,5.8,5.1,11l-14.8,30.1c-2.3,4.4-7.8,15.8-17,15.8c-4.1,0-7-1.5-7-4.6C245.5,327.2,246.2,324.7,247.4,322.4 M283.6,210.9
	c7.4-6.9,15.7-12.8,24.7-17.4c9-4.5,18.7-7.6,28.8-8.8c10-1.1,20.5-0.8,29.5,2.1c4.5,1.5,8.6,3.7,11.8,6.6c3.2,2.9,5.3,6.5,6,10.3
	c0.7,3.8-0.1,7.8-2.2,11.4c-2.1,3.6-5.4,6.6-9.3,8.9c-3.9,2.3-8.5,4-13.3,5.1c-4.8,1.1-9.8,1.6-14.9,1.7c-10.5,0.2-21-0.3-31.3-1.8
	c-10.3-1.5-20.4-4.1-30.4-7.4c-2.6-0.8-5.1-1.7-7.7-2.6C278,216.2,280.7,213.5,283.6,210.9 M184.4,322.4l14.8-29.8
	c2.3-4.4,7.6-16.2,17-16.2c6.3,0,7.4,4.1,6.3,8.3l-4.3,8.9l-11.7,24.2c-0.4,0.8-0.8,1.5-1,2.3c-2.3,4.6-8.4,13.3-16,13.3
	C182.2,333.4,182,327.4,184.4,322.4 M53.2,268.9c-2.3-1-4.3-2.4-5.8-4c-1.6-1.7-2.5-3.5-2.6-5.2c-0.2-1.7,0.4-3.4,1.6-4.9
	c1.2-1.5,3.1-2.8,5.1-3.4c2-0.6,4.2-0.7,6.3-0.2c1,0.3,2,0.7,2.9,1.2l1.4,0.9l0.7,0.5l0.3,0.3l0.2,0.1l0,0l0.1,0.1
	c0.8,0.9,1.5,1.7,2.1,2.7c0.6,1,1,2.1,1.4,3.2c0.8,2.3,1.1,4.9,1.1,7.5c0,1.3,0,2.6-0.1,3.9C62.5,271.5,57.4,270.7,53.2,268.9
	 M114.1,173.8l0.7,8H89v-44.4h9.1v36.4H114.1 M159.6,164c-1,6.9-8.2,11.7-16.7,11.7c-8.5,0-15.7-4.8-16.7-11.7v-26.7h9v24.9
	c0.6,3.2,3.6,5.5,7.7,5.5c4.2,0,7.2-2.3,7.8-5.5v-24.9h8.9V164 M201,174.7l-14.8-20.5c-0.9-1.3-1.5-2.2-2-3.2h-0.1
	c0.1,0.9,0.1,1.8,0.1,3.2v20.5h-8.9v-37.4h8.8l14.9,21.1c0.9,1.3,1.4,2.2,2,3.1h0.1c-0.1-1-0.1-1.7-0.1-3.1v-21.1h8.9v37.4H201
	 M234.8,167.9l-3.5,9.4h-9.7l16.6-40h9l18.9,45.2h-9.6l-5.8-14.5H234.8 M244.2,150.5c-0.6-1.6-1-3.1-1.4-4.4
	c-0.3,1.4-0.8,2.8-1.4,4.4l-3.8,10.1H248L244.2,150.5z M66.4,375.3l-2.8,8.5c-1.9-1.5-4.8-3.1-8.6-3.1c-4.6,0-7.8,2.4-8.5,5.4v8
	c0.8,3,3.9,5.5,8.6,5.5c3.6,0,6.4-1.4,8.3-2.9l2.6,8.5c-2.2,1.6-6.3,3.7-12.6,3.7c-9.6,0-16.7-5-17.8-11.4v-14.1
	c1.1-6.3,8.5-11.9,18.3-11.9C60,371.5,64.2,373.7,66.4,375.3 M81.4,372.7h11.2v35.6H81.4V372.7z M148.7,408.3h-10.1l-17.7-20.6
	l0.1,2.2v18.4h-11.1v-35.6h10.2l17.6,20.7l-0.1-1.8v-18.9h11.1V408.3 M195.5,408.3H166v-35.6h29.8l-0.9,9.5h-18.1v4.9h14.1v6.3
	h-14.1v5.4h17.8L195.5,408.3 M246.2,408.3V388l-11.7,12.8L222.8,388v20.3h-11v-35.6h10.1l12.7,14.7l12.6-14.7h10.1v35.6H246.2
	 M285.5,402.3l-2.3,6h-12.1l16.3-35.7H299l16.2,35.7h-12.1l-2.3-6H285.5 M293.2,382.7l-4.7,12.1h9.4L293.2,382.7z"/>
</svg>
